<svg xmlns="http://www.w3.org/2000/svg" width="8" height="3" viewBox="0 0 50 9" fill="none">
  <path d="M4.54542 1.06004C4.59284 0.914091 4.79932 0.91409 4.84675 1.06004L5.51411 3.11397C5.53532 3.17924 5.59614 3.22343 5.66477 3.22343L7.8244 3.22343C7.97786 3.22343 8.04167 3.41981 7.91752 3.51001L6.17034 4.77941C6.11481 4.81975 6.09158 4.89125 6.11279 4.95652L6.78015 7.01046C6.82757 7.1564 6.66053 7.27777 6.53638 7.18757L4.7892 5.91817C4.73368 5.87783 4.65849 5.87783 4.60297 5.91817L2.85579 7.18757C2.73164 7.27777 2.56459 7.1564 2.61202 7.01046L3.27938 4.95652C3.30059 4.89125 3.27735 4.81975 3.22183 4.77941L1.47465 3.51001C1.3505 3.41981 1.41431 3.22343 1.56777 3.22343L3.7274 3.22343C3.79603 3.22343 3.85685 3.17924 3.87806 3.11397L4.54542 1.06004Z" fill="#F1CC4A"/>
  <path d="M24.8225 1.06006C24.87 0.914113 25.0764 0.914113 25.1239 1.06006L25.7912 3.114C25.8124 3.17927 25.8733 3.22346 25.9419 3.22346L28.1015 3.22346C28.255 3.22346 28.3188 3.41983 28.1946 3.51003L26.4475 4.77943C26.3919 4.81977 26.3687 4.89127 26.3899 4.95655L27.0573 7.01048C27.1047 7.15643 26.9377 7.27779 26.8135 7.18759L25.0663 5.91819C25.0108 5.87785 24.9356 5.87785 24.8801 5.91819L23.1329 7.18759C23.0088 7.27779 22.8417 7.15643 22.8891 7.01048L23.5565 4.95655C23.5777 4.89127 23.5545 4.81977 23.499 4.77943L21.7518 3.51003C21.6276 3.41983 21.6914 3.22346 21.8449 3.22346L24.0045 3.22346C24.0732 3.22346 24.134 3.17927 24.1552 3.114L24.8225 1.06006Z" fill="#F1CC4A"/>
  <path d="M14.6841 1.06006C14.7315 0.914113 14.938 0.914113 14.9854 1.06006L15.6527 3.114C15.674 3.17927 15.7348 3.22346 15.8034 3.22346L17.963 3.22346C18.1165 3.22346 18.1803 3.41983 18.0562 3.51003L16.309 4.77943C16.2534 4.81977 16.2302 4.89127 16.2514 4.95655L16.9188 7.01048C16.9662 7.15643 16.7992 7.27779 16.675 7.18759L14.9278 5.91819C14.8723 5.87785 14.7971 5.87785 14.7416 5.91819L12.9944 7.18759C12.8703 7.27779 12.7032 7.15643 12.7506 7.01048L13.418 4.95655C13.4392 4.89127 13.416 4.81977 13.3605 4.77943L11.6133 3.51003C11.4891 3.41983 11.5529 3.22346 11.7064 3.22346L13.866 3.22346C13.9347 3.22346 13.9955 3.17927 14.0167 3.114L14.6841 1.06006Z" fill="#F1CC4A"/>
  <path d="M34.9611 1.06006C35.0085 0.914113 35.215 0.914113 35.2624 1.06006L35.9298 3.114C35.951 3.17927 36.0118 3.22346 36.0804 3.22346L38.2401 3.22346C38.3935 3.22346 38.4573 3.41983 38.3332 3.51003L36.586 4.77943C36.5305 4.81977 36.5072 4.89127 36.5284 4.95655L37.1958 7.01048C37.2432 7.15643 37.0762 7.27779 36.952 7.18759L35.2048 5.91819C35.1493 5.87785 35.0741 5.87785 35.0186 5.91819L33.2714 7.18759C33.1473 7.27779 32.9802 7.15643 33.0277 7.01048L33.695 4.95655C33.7162 4.89127 33.693 4.81977 33.6375 4.77943L31.8903 3.51003C31.7661 3.41983 31.83 3.22346 31.9834 3.22346L34.143 3.22346C34.2117 3.22346 34.2725 3.17927 34.2937 3.114L34.9611 1.06006Z" fill="#F1CC4A"/>
  <path d="M45.0996 1.06006C45.147 0.914113 45.3535 0.914113 45.4009 1.06006L46.0683 3.114C46.0895 3.17927 46.1503 3.22346 46.219 3.22346L48.3786 3.22346C48.5321 3.22346 48.5959 3.41983 48.4717 3.51003L46.7245 4.77943C46.669 4.81977 46.6458 4.89127 46.667 4.95655L47.3344 7.01048C47.3818 7.15643 47.2147 7.27779 47.0906 7.18759L45.3434 5.91819C45.2879 5.87785 45.2127 5.87785 45.1572 5.91819L43.41 7.18759C43.2858 7.27779 43.1188 7.15643 43.1662 7.01048L43.8336 4.95655C43.8548 4.89127 43.8316 4.81977 43.776 4.77943L42.0289 3.51003C41.9047 3.41983 41.9685 3.22346 42.122 3.22346L44.2816 3.22346C44.3502 3.22346 44.4111 3.17927 44.4323 3.114L45.0996 1.06006Z" fill="#F1CC4A"/>
</svg>